<?xml version="1.0" encoding="UTF-8"?>
<svg viewBox="160.6 24.7 336.9 360.8" class="floor-svg" xmlns="http://www.w3.org/2000/svg" preserveAspectRatio="xMidYMid meet">
<defs>
<g>
<symbol overflow="visible" id="glyph0-0">
<path style="stroke:none;" d="M 0 0 L 5.90625 0 L 5.90625 -8.265625 L 0 -8.265625 Z M 2.953125 -4.671875 L 0.9375 -7.671875 L 4.96875 -7.671875 Z M 3.3125 -4.140625 L 5.3125 -7.140625 L 5.3125 -1.125 Z M 0.9375 -0.59375 L 2.953125 -3.609375 L 4.96875 -0.59375 Z M 0.59375 -7.140625 L 2.59375 -4.140625 L 0.59375 -1.125 Z M 0.59375 -7.140625 "/>
</symbol>
<symbol overflow="visible" id="glyph0-1">
<path style="stroke:none;" d="M 0.890625 -0.03125 C 1.234375 0.03125 1.78125 0.078125 2.5 0.078125 C 3.796875 0.078125 4.6875 -0.171875 5.25 -0.671875 C 5.640625 -1.0625 5.921875 -1.578125 5.921875 -2.265625 C 5.921875 -3.453125 5.03125 -4.078125 4.28125 -4.265625 L 4.28125 -4.28125 C 5.109375 -4.59375 5.625 -5.265625 5.625 -6.03125 C 5.625 -6.65625 5.375 -7.140625 4.96875 -7.4375 C 4.46875 -7.84375 3.796875 -8.015625 2.78125 -8.015625 C 2.0625 -8.015625 1.34375 -7.953125 0.890625 -7.859375 Z M 1.921875 -7.15625 C 2.09375 -7.1875 2.359375 -7.234375 2.828125 -7.234375 C 3.875 -7.234375 4.578125 -6.859375 4.578125 -5.9375 C 4.578125 -5.15625 3.953125 -4.59375 2.859375 -4.59375 L 1.921875 -4.59375 Z M 1.921875 -3.8125 L 2.78125 -3.8125 C 3.890625 -3.8125 4.828125 -3.359375 4.828125 -2.28125 C 4.828125 -1.125 3.84375 -0.734375 2.78125 -0.734375 C 2.421875 -0.734375 2.125 -0.75 1.921875 -0.78125 Z M 1.921875 -3.8125 "/>
</symbol>
<symbol overflow="visible" id="glyph0-2">
<path style="stroke:none;" d="M 3.28125 -5.84375 C 1.703125 -5.84375 0.453125 -4.71875 0.453125 -2.8125 C 0.453125 -1 1.640625 0.125 3.1875 0.125 C 4.578125 0.125 6.03125 -0.796875 6.03125 -2.90625 C 6.03125 -4.65625 4.921875 -5.84375 3.28125 -5.84375 Z M 3.265625 -5.0625 C 4.484375 -5.0625 4.96875 -3.84375 4.96875 -2.875 C 4.96875 -1.578125 4.234375 -0.65625 3.234375 -0.65625 C 2.21875 -0.65625 1.5 -1.59375 1.5 -2.84375 C 1.5 -3.9375 2.03125 -5.0625 3.265625 -5.0625 Z M 3.265625 -5.0625 "/>
</symbol>
<symbol overflow="visible" id="glyph0-3">
<path style="stroke:none;" d="M 1.09375 -7.09375 L 1.09375 -5.71875 L 0.21875 -5.71875 L 0.21875 -4.921875 L 1.09375 -4.921875 L 1.09375 -1.8125 C 1.09375 -1.140625 1.203125 -0.625 1.5 -0.3125 C 1.75 -0.03125 2.140625 0.125 2.625 0.125 C 3.03125 0.125 3.34375 0.0625 3.546875 -0.03125 L 3.5 -0.796875 C 3.359375 -0.765625 3.171875 -0.734375 2.890625 -0.734375 C 2.3125 -0.734375 2.109375 -1.140625 2.109375 -1.84375 L 2.109375 -4.921875 L 3.609375 -4.921875 L 3.609375 -5.71875 L 2.109375 -5.71875 L 2.109375 -7.359375 Z M 1.09375 -7.09375 "/>
</symbol>
<symbol overflow="visible" id="glyph0-4">
<path style="stroke:none;" d="M 0.859375 0 L 1.875 0 L 1.875 -3.453125 C 1.875 -3.625 1.90625 -3.796875 1.953125 -3.953125 C 2.125 -4.484375 2.59375 -5 3.25 -5 C 4.046875 -5 4.4375 -4.328125 4.4375 -3.421875 L 4.4375 0 L 5.453125 0 L 5.453125 -3.53125 C 5.453125 -3.71875 5.5 -3.90625 5.546875 -4.046875 C 5.71875 -4.5625 6.171875 -5 6.765625 -5 C 7.609375 -5 8.015625 -4.328125 8.015625 -3.234375 L 8.015625 0 L 9.03125 0 L 9.03125 -3.359375 C 9.03125 -5.34375 7.90625 -5.84375 7.140625 -5.84375 C 6.609375 -5.84375 6.21875 -5.703125 5.875 -5.453125 C 5.640625 -5.265625 5.421875 -5.015625 5.25 -4.703125 L 5.21875 -4.703125 C 4.96875 -5.375 4.375 -5.84375 3.609375 -5.84375 C 2.65625 -5.84375 2.125 -5.34375 1.8125 -4.796875 L 1.765625 -4.796875 L 1.71875 -5.71875 L 0.8125 -5.71875 C 0.84375 -5.25 0.859375 -4.765625 0.859375 -4.171875 Z M 0.859375 0 "/>
</symbol>
<symbol overflow="visible" id="glyph0-5">
<path style="stroke:none;" d=""/>
</symbol>
<symbol overflow="visible" id="glyph0-6">
<path style="stroke:none;" d="M 0.890625 0 L 1.921875 0 L 1.921875 -3.609375 L 4.9375 -3.609375 L 4.9375 -4.453125 L 1.921875 -4.453125 L 1.921875 -7.09375 L 5.1875 -7.09375 L 5.1875 -7.96875 L 0.890625 -7.96875 Z M 0.890625 0 "/>
</symbol>
<symbol overflow="visible" id="glyph0-7">
<path style="stroke:none;" d="M 0.859375 0 L 1.90625 0 L 1.90625 -8.390625 L 0.859375 -8.390625 Z M 0.859375 0 "/>
</symbol>
<symbol overflow="visible" id="glyph0-8">
<path style="stroke:none;" d="M 0.859375 0 L 1.890625 0 L 1.890625 -3.046875 C 1.890625 -3.21875 1.90625 -3.390625 1.9375 -3.53125 C 2.078125 -4.3125 2.59375 -4.859375 3.328125 -4.859375 C 3.46875 -4.859375 3.578125 -4.859375 3.6875 -4.828125 L 3.6875 -5.8125 C 3.59375 -5.828125 3.515625 -5.84375 3.390625 -5.84375 C 2.6875 -5.84375 2.0625 -5.359375 1.8125 -4.59375 L 1.765625 -4.59375 L 1.71875 -5.71875 L 0.8125 -5.71875 C 0.84375 -5.1875 0.859375 -4.609375 0.859375 -3.9375 Z M 0.859375 0 "/>
</symbol>
</g>
</defs>
<g id="surface1">
<path style="fill-rule:nonzero;fill:rgb(68.998718%,74.499512%,77.2995%);fill-opacity:1;stroke-width:1;stroke-linecap:butt;stroke-linejoin:miter;stroke:rgb(0%,0%,0%);stroke-opacity:1;stroke-miterlimit:10;" d="M -0.00111875 0.00040625 L -0.00111875 181.105875 L -105.0519 181.105875 L -105.0519 -11.015219 L -1.587056 -11.015219 L -1.587056 -53.890219 L 174.674663 -53.890219 L 174.674663 0.00040625 Z M -0.00111875 0.00040625 " transform="matrix(1,0,0,-1,306.3019,243.684)"/>
<path style="fill-rule:nonzero;fill:rgb(49.798584%,54.899597%,55.299377%);fill-opacity:1;stroke-width:1;stroke-linecap:butt;stroke-linejoin:miter;stroke:rgb(0%,0%,0%);stroke-opacity:1;stroke-miterlimit:10;" d="M 267.171875 425.679688 L 243.554688 425.679688 L 243.554688 436.605469 L 267.171875 436.605469 Z M 267.171875 425.679688 " transform="matrix(1,0,0,-1,0,505)"/>
<path style="fill-rule:nonzero;fill:rgb(89.7995%,65.899658%,13.699341%);fill-opacity:1;stroke-width:1;stroke-linecap:butt;stroke-linejoin:miter;stroke:rgb(0%,0%,0%);stroke-opacity:1;stroke-miterlimit:10;" d="M 329.039062 250.300781 L 233.859375 250.300781 L 233.859375 216.105469 L 329.039062 216.105469 Z M 329.039062 250.300781 " transform="matrix(1,0,0,-1,0,505)"/>
<path style="fill-rule:nonzero;fill:rgb(35.699463%,60.798645%,83.499146%);fill-opacity:1;stroke-width:1;stroke-linecap:butt;stroke-linejoin:miter;stroke:rgb(0%,0%,0%);stroke-opacity:1;stroke-miterlimit:10;" d="M 0.00141875 -0.0012875 L 0.00141875 51.998713 L -71.342331 51.998713 L -71.342331 1.764338 L -44.830612 1.764338 L -44.830612 -1.145819 L -35.670456 -1.145819 L -35.670456 -25.118475 L 7.138138 -25.118475 L 7.138138 -0.0012875 Z M 0.00141875 -0.0012875 " transform="matrix(1,0,0,-1,482.3853,300.6159)"/>
<g style="fill:rgb(0%,0%,0%);fill-opacity:1;">
  
</g>
<g style="fill:rgb(0%,0%,0%);fill-opacity:1;">
  
  
  
</g>
<g style="fill:rgb(0%,0%,0%);fill-opacity:1;">
  
  
  
  
</g>
<g style="fill:rgb(0%,0%,0%);fill-opacity:1;">
  
  
  
  
</g>
<path style="fill-rule:nonzero;fill:rgb(89.7995%,65.899658%,13.699341%);fill-opacity:1;stroke-width:1;stroke-linecap:butt;stroke-linejoin:miter;stroke:rgb(0%,0%,0%);stroke-opacity:1;stroke-miterlimit:10;" d="M 289.734375 260.699219 L 212.53125 260.699219 L 212.53125 425.679688 L 289.734375 425.679688 Z M 289.734375 260.699219 " transform="matrix(1,0,0,-1,0,505)"/>
<path style="fill-rule:nonzero;fill:rgb(89.7995%,65.899658%,13.699341%);fill-opacity:1;stroke-width:1;stroke-linecap:butt;stroke-linejoin:miter;stroke:rgb(0%,0%,0%);stroke-opacity:1;stroke-miterlimit:10;" d="M 289.734375 289.957031 L 299.957031 289.957031 L 299.957031 260.699219 L 289.734375 260.699219 Z M 289.734375 289.957031 " transform="matrix(1,0,0,-1,0,505)"/>
<path style="fill-rule:nonzero;fill:rgb(49.798584%,54.899597%,55.299377%);fill-opacity:1;stroke-width:1;stroke-linecap:butt;stroke-linejoin:miter;stroke:rgb(0%,0%,0%);stroke-opacity:1;stroke-miterlimit:10;" d="M 289.734375 289.957031 L 299.957031 289.957031 L 299.957031 309.347656 L 289.734375 309.347656 Z M 289.734375 289.957031 " transform="matrix(1,0,0,-1,0,505)"/>
<path style="fill-rule:nonzero;fill:rgb(49.798584%,54.899597%,55.299377%);fill-opacity:1;stroke-width:1;stroke-linecap:butt;stroke-linejoin:miter;stroke:rgb(0%,0%,0%);stroke-opacity:1;stroke-miterlimit:10;" d="M 289.734375 310.050781 L 299.957031 310.050781 L 299.957031 317.808594 L 289.734375 317.808594 Z M 289.734375 310.050781 " transform="matrix(1,0,0,-1,0,505)"/>
<path style="fill-rule:nonzero;fill:rgb(49.798584%,54.899597%,55.299377%);fill-opacity:1;stroke-width:1;stroke-linecap:butt;stroke-linejoin:miter;stroke:rgb(0%,0%,0%);stroke-opacity:1;stroke-miterlimit:10;" d="M -0.00048125 0.00086875 L -0.00048125 -5.991319 L -0.527825 -5.991319 L -0.527825 -36.663194 L 9.694831 -36.663194 L 9.694831 0.00086875 Z M -0.00048125 0.00086875 " transform="matrix(1,0,0,-1,290.2622,143.8329)"/>
<path style="fill-rule:nonzero;fill:rgb(89.7995%,65.899658%,13.699341%);fill-opacity:1;stroke-width:1;stroke-linecap:butt;stroke-linejoin:miter;stroke:rgb(0%,0%,0%);stroke-opacity:1;stroke-miterlimit:10;" d="M 299.957031 367.863281 L 289.734375 367.863281 L 289.734375 398.886719 L 299.957031 398.886719 Z M 299.957031 367.863281 " transform="matrix(1,0,0,-1,0,505)"/>
<path style="fill-rule:nonzero;fill:rgb(89.7995%,65.899658%,13.699341%);fill-opacity:1;stroke-width:1;stroke-linecap:butt;stroke-linejoin:miter;stroke:rgb(0%,0%,0%);stroke-opacity:1;stroke-miterlimit:10;" d="M 289.734375 425.679688 L 299.957031 425.679688 L 299.957031 398.886719 L 289.734375 398.886719 Z M 289.734375 425.679688 " transform="matrix(1,0,0,-1,0,505)"/>
<path style="fill-rule:nonzero;fill:rgb(89.7995%,65.899658%,13.699341%);fill-opacity:1;stroke-width:1;stroke-linecap:butt;stroke-linejoin:miter;stroke:rgb(0%,0%,0%);stroke-opacity:1;stroke-miterlimit:10;" d="M 222.578125 425.679688 L 212.53125 425.679688 L 212.53125 436.605469 L 222.578125 436.605469 Z M 222.578125 425.679688 " transform="matrix(1,0,0,-1,0,505)"/>
<path style="fill-rule:nonzero;fill:rgb(89.7995%,65.899658%,13.699341%);fill-opacity:1;stroke-width:1;stroke-linecap:butt;stroke-linejoin:miter;stroke:rgb(0%,0%,0%);stroke-opacity:1;stroke-miterlimit:10;" d="M 222.578125 425.679688 L 243.554688 425.679688 L 243.554688 436.605469 L 222.578125 436.605469 Z M 222.578125 425.679688 " transform="matrix(1,0,0,-1,0,505)"/>
<path style="fill-rule:nonzero;fill:rgb(89.7995%,65.899658%,13.699341%);fill-opacity:1;stroke-width:1;stroke-linecap:butt;stroke-linejoin:miter;stroke:rgb(0%,0%,0%);stroke-opacity:1;stroke-miterlimit:10;" d="M 289.734375 425.679688 L 299.957031 425.679688 L 299.957031 436.605469 L 289.734375 436.605469 Z M 289.734375 425.679688 " transform="matrix(1,0,0,-1,0,505)"/>
<path style="fill-rule:nonzero;fill:rgb(89.7995%,65.899658%,13.699341%);fill-opacity:1;stroke-width:1;stroke-linecap:butt;stroke-linejoin:miter;stroke:rgb(0%,0%,0%);stroke-opacity:1;stroke-miterlimit:10;" d="M 289.734375 425.679688 L 280.214844 425.679688 L 280.214844 436.605469 L 289.734375 436.605469 Z M 289.734375 425.679688 " transform="matrix(1,0,0,-1,0,505)"/>
<path style="fill-rule:nonzero;fill:rgb(89.7995%,65.899658%,13.699341%);fill-opacity:1;stroke-width:1;stroke-linecap:butt;stroke-linejoin:miter;stroke:rgb(0%,0%,0%);stroke-opacity:1;stroke-miterlimit:10;" d="M 255.363281 442.421875 L 287.003906 442.421875 L 287.003906 472.253906 L 255.363281 472.253906 Z M 255.363281 442.421875 " transform="matrix(1,0,0,-1,0,505)"/>
<path style="fill-rule:nonzero;fill:rgb(89.7995%,65.899658%,13.699341%);fill-opacity:1;stroke-width:1;stroke-linecap:butt;stroke-linejoin:miter;stroke:rgb(0%,0%,0%);stroke-opacity:1;stroke-miterlimit:10;" d="M 233.992188 442.421875 L 255.363281 442.421875 L 255.363281 472.253906 L 233.992188 472.253906 Z M 233.992188 442.421875 " transform="matrix(1,0,0,-1,0,505)"/>
<path style="fill-rule:nonzero;fill:rgb(89.7995%,65.899658%,13.699341%);fill-opacity:1;stroke-width:1;stroke-linecap:butt;stroke-linejoin:miter;stroke:rgb(0%,0%,0%);stroke-opacity:1;stroke-miterlimit:10;" d="M 201.25 442.421875 L 233.902344 442.421875 L 233.902344 472.253906 L 201.25 472.253906 Z M 201.25 442.421875 " transform="matrix(1,0,0,-1,0,505)"/>
<path style="fill-rule:nonzero;fill:rgb(89.7995%,65.899658%,13.699341%);fill-opacity:1;stroke-width:1;stroke-linecap:butt;stroke-linejoin:miter;stroke:rgb(0%,0%,0%);stroke-opacity:1;stroke-miterlimit:10;" d="M 168.597656 396.375 L 201.25 396.375 L 201.25 472.253906 L 168.597656 472.253906 Z M 168.597656 396.375 " transform="matrix(1,0,0,-1,0,505)"/>
<path style="fill-rule:nonzero;fill:rgb(89.7995%,65.899658%,13.699341%);fill-opacity:1;stroke-width:1;stroke-linecap:butt;stroke-linejoin:miter;stroke:rgb(0%,0%,0%);stroke-opacity:1;stroke-miterlimit:10;" d="M 328.863281 216.105469 L 222.226562 216.105469 L 222.226562 127.445312 L 328.863281 127.445312 Z M 328.863281 216.105469 " transform="matrix(1,0,0,-1,0,505)"/>
<path style="fill-rule:nonzero;fill:rgb(48.199463%,40.79895%,68.199158%);fill-opacity:1;stroke-width:1;stroke-linecap:butt;stroke-linejoin:miter;stroke:rgb(0%,0%,0%);stroke-opacity:1;stroke-miterlimit:10;" d="M 397.207031 207.425781 L 349.574219 207.425781 L 349.574219 255.058594 L 397.207031 255.058594 Z M 397.207031 207.425781 " transform="matrix(1,0,0,-1,0,505)"/>
<path style="fill-rule:nonzero;fill:rgb(95.698547%,81.599426%,24.699402%);fill-opacity:1;stroke-width:1;stroke-linecap:butt;stroke-linejoin:miter;stroke:rgb(0%,0%,0%);stroke-opacity:1;stroke-miterlimit:10;" d="M 223.105469 232.496094 L 201.25 232.496094 L 201.25 250.300781 L 223.105469 250.300781 Z M 223.105469 232.496094 " transform="matrix(1,0,0,-1,0,505)"/>
<path style="fill-rule:nonzero;fill:rgb(95.698547%,81.599426%,24.699402%);fill-opacity:1;stroke-width:1;stroke-linecap:butt;stroke-linejoin:miter;stroke:rgb(0%,0%,0%);stroke-opacity:1;stroke-miterlimit:10;" d="M 349.574219 220.6875 L 340.496094 220.6875 L 340.496094 255.058594 L 349.574219 255.058594 Z M 349.574219 220.6875 " transform="matrix(1,0,0,-1,0,505)"/>
<path style="fill-rule:nonzero;fill:rgb(95.698547%,81.599426%,24.699402%);fill-opacity:1;stroke-width:1;stroke-linecap:butt;stroke-linejoin:miter;stroke:rgb(0%,0%,0%);stroke-opacity:1;stroke-miterlimit:10;" d="M 411.042969 211.609375 L 403.949219 211.609375 L 403.949219 233.203125 L 411.042969 233.203125 Z M 411.042969 211.609375 " transform="matrix(1,0,0,-1,0,505)"/>
<path style="fill-rule:nonzero;fill:rgb(95.698547%,81.599426%,24.699402%);fill-opacity:1;stroke-width:1;stroke-linecap:butt;stroke-linejoin:miter;stroke:rgb(0%,0%,0%);stroke-opacity:1;stroke-miterlimit:10;" d="M 329.9375 261.273438 L 313.699219 261.273438 L 313.699219 282.683594 L 329.9375 282.683594 Z M 329.9375 261.273438 " transform="matrix(1,0,0,-1,0,505)"/>
</g>
<g class="hotlayer"><path class="hot hot-hall" data-name="Hallway" d="M -0.00111875 0.00040625 L -0.00111875 181.105875 L -105.0519 181.105875 L -105.0519 -11.015219 L -1.587056 -11.015219 L -1.587056 -53.890219 L 174.674663 -53.890219 L 174.674663 0.00040625 Z M -0.00111875 0.00040625 " transform="matrix(1,0,0,-1,306.3019,243.684)"/><path class="hot hot-restroom" data-name="Restroom" d="M 267.171875 425.679688 L 243.554688 425.679688 L 243.554688 436.605469 L 267.171875 436.605469 Z M 267.171875 425.679688 " transform="matrix(1,0,0,-1,0,505)"/><path class="hot hot-room" data-name="Changing Rooms" d="M 329.039062 250.300781 L 233.859375 250.300781 L 233.859375 216.105469 L 329.039062 216.105469 Z M 329.039062 250.300781 " transform="matrix(1,0,0,-1,0,505)"/><path class="hot hot-room" data-name="Woods Shop" d="M 0.00141875 -0.0012875 L 0.00141875 51.998713 L -71.342331 51.998713 L -71.342331 1.764338 L -44.830612 1.764338 L -44.830612 -1.145819 L -35.670456 -1.145819 L -35.670456 -25.118475 L 7.138138 -25.118475 L 7.138138 -0.0012875 Z M 0.00141875 -0.0012875 " transform="matrix(1,0,0,-1,482.3853,300.6159)"/><path class="hot hot-room" data-name="Main Gym" d="M 289.734375 260.699219 L 212.53125 260.699219 L 212.53125 425.679688 L 289.734375 425.679688 Z M 289.734375 260.699219 " transform="matrix(1,0,0,-1,0,505)"/><path class="hot hot-restroom" data-name="Restroom" d="M 289.734375 289.957031 L 299.957031 289.957031 L 299.957031 309.347656 L 289.734375 309.347656 Z M 289.734375 289.957031 " transform="matrix(1,0,0,-1,0,505)"/><path class="hot hot-restroom" data-name="Restroom" d="M 289.734375 310.050781 L 299.957031 310.050781 L 299.957031 317.808594 L 289.734375 317.808594 Z M 289.734375 310.050781 " transform="matrix(1,0,0,-1,0,505)"/><path class="hot hot-restroom" data-name="Restroom" d="M -0.00048125 0.00086875 L -0.00048125 -5.991319 L -0.527825 -5.991319 L -0.527825 -36.663194 L 9.694831 -36.663194 L 9.694831 0.00086875 Z M -0.00048125 0.00086875 " transform="matrix(1,0,0,-1,290.2622,143.8329)"/><path class="hot hot-room" data-name="M Locker Room" d="M 255.363281 442.421875 L 287.003906 442.421875 L 287.003906 472.253906 L 255.363281 472.253906 Z M 255.363281 442.421875 " transform="matrix(1,0,0,-1,0,505)"/><path class="hot hot-room" data-name="Storage" d="M 233.992188 442.421875 L 255.363281 442.421875 L 255.363281 472.253906 L 233.992188 472.253906 Z M 233.992188 442.421875 " transform="matrix(1,0,0,-1,0,505)"/><path class="hot hot-room" data-name="W Locker Room" d="M 201.25 442.421875 L 233.902344 442.421875 L 233.902344 472.253906 L 201.25 472.253906 Z M 201.25 442.421875 " transform="matrix(1,0,0,-1,0,505)"/><path class="hot hot-room" data-name="Wrestling Room" d="M 168.597656 396.375 L 201.25 396.375 L 201.25 472.253906 L 168.597656 472.253906 Z M 168.597656 396.375 " transform="matrix(1,0,0,-1,0,505)"/><path class="hot hot-room" data-name="Pool" d="M 328.863281 216.105469 L 222.226562 216.105469 L 222.226562 127.445312 L 328.863281 127.445312 Z M 328.863281 216.105469 " transform="matrix(1,0,0,-1,0,505)"/><path class="hot hot-room" data-name="Faculty Area" d="M 397.207031 207.425781 L 349.574219 207.425781 L 349.574219 255.058594 L 397.207031 255.058594 Z M 397.207031 207.425781 " transform="matrix(1,0,0,-1,0,505)"/><path class="hot hot-stairs" data-name="Stairs" d="M 223.105469 232.496094 L 201.25 232.496094 L 201.25 250.300781 L 223.105469 250.300781 Z M 223.105469 232.496094 " transform="matrix(1,0,0,-1,0,505)"/><path class="hot hot-stairs" data-name="Stairs" d="M 349.574219 220.6875 L 340.496094 220.6875 L 340.496094 255.058594 L 349.574219 255.058594 Z M 349.574219 220.6875 " transform="matrix(1,0,0,-1,0,505)"/><path class="hot hot-stairs" data-name="Stairs" d="M 411.042969 211.609375 L 403.949219 211.609375 L 403.949219 233.203125 L 411.042969 233.203125 Z M 411.042969 211.609375 " transform="matrix(1,0,0,-1,0,505)"/><path class="hot hot-stairs" data-name="Stairs" d="M 329.9375 261.273438 L 313.699219 261.273438 L 313.699219 282.683594 L 329.9375 282.683594 Z M 329.9375 261.273438 " transform="matrix(1,0,0,-1,0,505)"/></g></svg>